<?plantuml 1.2026.1?><svg xmlns="http://www.w3.org/2000/svg" xmlns:xlink="http://www.w3.org/1999/xlink" contentStyleType="text/css" data-diagram-type="DESCRIPTION" height="767px" preserveAspectRatio="none" style="width:1195px;height:767px;background:#FFFFFF;" version="1.1" viewBox="0 0 1195 767" width="1195px" zoomAndPan="magnify"><defs/><g><!--cluster Aplikace--><g class="cluster" data-qualified-name="Aplikace" data-source-line="5" id="ent0002"><path d="M8.5,6.602 L67.7258,6.602 A3.75,3.75 0 0 1 70.2258,9.102 L77.2258,31.6699 L1185.92,31.6699 A2.5,2.5 0 0 1 1188.42,34.1699 L1188.42,758.102 A2.5,2.5 0 0 1 1185.92,760.602 L8.5,760.602 A2.5,2.5 0 0 1 6,758.102 L6,9.102 A2.5,2.5 0 0 1 8.5,6.602" fill="none" style="stroke:#000000;stroke-width:1.5;"/><line style="stroke:#000000;stroke-width:1.5;" x1="6" x2="77.2258" y1="31.6699" y2="31.6699"/><text fill="#000000" font-family="sans-serif" font-size="14" font-weight="bold" lengthAdjust="spacing" textLength="58.2258" x="10" y="23.5679">Aplikace</text></g><!--cluster Business logika--><g class="cluster" data-qualified-name="Aplikace.Business logika" data-source-line="8" id="ent0003"><path d="M40.5,540.602 L148.9286,540.602 A3.75,3.75 0 0 1 151.4286,543.102 L158.4286,565.6699 L1152.24,565.6699 A2.5,2.5 0 0 1 1154.74,568.1699 L1154.74,726.102 A2.5,2.5 0 0 1 1152.24,728.602 L40.5,728.602 A2.5,2.5 0 0 1 38,726.102 L38,543.102 A2.5,2.5 0 0 1 40.5,540.602" fill="none" style="stroke:#000000;stroke-width:1.5;"/><line style="stroke:#000000;stroke-width:1.5;" x1="38" x2="158.4286" y1="565.6699" y2="565.6699"/><text fill="#000000" font-family="sans-serif" font-size="14" font-weight="bold" lengthAdjust="spacing" textLength="107.4286" x="42" y="557.5679">Business logika</text></g><!--cluster U?ivatelsk? rozhran? (UI)--><g class="cluster" data-qualified-name="Aplikace.U.ivatelsk. rozhran. .UI." data-source-line="19" id="ent0011"><path d="M48.2,60.602 L219.3379,60.602 A3.75,3.75 0 0 1 221.8379,63.102 L228.8379,85.6699 L1153.92,85.6699 A2.5,2.5 0 0 1 1156.42,88.1699 L1156.42,498.102 A2.5,2.5 0 0 1 1153.92,500.602 L48.2,500.602 A2.5,2.5 0 0 1 45.7,498.102 L45.7,63.102 A2.5,2.5 0 0 1 48.2,60.602" fill="none" style="stroke:#000000;stroke-width:1.5;"/><line style="stroke:#000000;stroke-width:1.5;" x1="45.7" x2="228.8379" y1="85.6699" y2="85.6699"/><text fill="#000000" font-family="sans-serif" font-size="14" font-weight="bold" lengthAdjust="spacing" textLength="170.1379" x="49.7" y="77.5679">U&#382;ivatelsk&#233; rozhran&#237; (UI)</text></g><!--entity Datov? struktury--><g class="entity" data-qualified-name="Aplikace.Business logika.Datov. struktury" data-source-line="9" id="ent0004"><rect fill="#F1F1F1" height="49.0679" rx="2.5" ry="2.5" style="stroke:#181818;stroke-width:0.5;" width="150.5436" x="54" y="590.072"/><rect fill="#F1F1F1" height="10" style="stroke:#181818;stroke-width:0.5;" width="15" x="184.5436" y="595.072"/><rect fill="#F1F1F1" height="2" style="stroke:#181818;stroke-width:0.5;" width="4" x="182.5436" y="597.072"/><rect fill="#F1F1F1" height="2" style="stroke:#181818;stroke-width:0.5;" width="4" x="182.5436" y="601.072"/><text fill="#000000" font-family="sans-serif" font-size="14" lengthAdjust="spacing" textLength="110.5436" x="69" y="625.0379">Datov&#233; struktury</text></g><g class="entity" data-qualified-name="Aplikace.Business logika.GMN5" data-source-line="10" id="ent0006"><path d="M69.39,673.752 L69.39,701.458 A0,0 0 0 0 69.39,701.458 L189.1511,701.458 A0,0 0 0 0 189.1511,701.458 L189.1511,683.752 L179.1511,673.752 L133.27,673.752 L129.27,639.382 L125.27,673.752 L69.39,673.752 A0,0 0 0 0 69.39,673.752" fill="#FFFFFF" style="stroke:#181818;stroke-width:0.5;"/><path d="M179.1511,673.752 L179.1511,683.752 L189.1511,683.752 L179.1511,673.752" fill="#FFFFFF" style="stroke:#181818;stroke-width:0.5;"/><text fill="#000000" font-family="sans-serif" font-size="13" lengthAdjust="spacing" textLength="98.7611" x="75.39" y="692.649">Graf, 3-KNF, SSP</text></g><!--entity Reduk?n? modul--><g class="entity" data-qualified-name="Aplikace.Business logika.Reduk.n. modul" data-source-line="12" id="ent0008"><rect fill="#F1F1F1" height="49.0679" rx="2.5" ry="2.5" style="stroke:#181818;stroke-width:0.5;" width="146.3996" x="456.84" y="579.072"/><rect fill="#F1F1F1" height="10" style="stroke:#181818;stroke-width:0.5;" width="15" x="583.2396" y="584.072"/><rect fill="#F1F1F1" height="2" style="stroke:#181818;stroke-width:0.5;" width="4" x="581.2396" y="586.072"/><rect fill="#F1F1F1" height="2" style="stroke:#181818;stroke-width:0.5;" width="4" x="581.2396" y="590.072"/><text fill="#000000" font-family="sans-serif" font-size="14" lengthAdjust="spacing" textLength="106.3996" x="471.84" y="614.0379">Reduk&#269;n&#237; modul</text></g><!--entity ?e??c? modul--><g class="entity" data-qualified-name="Aplikace.Business logika..e..c. modul" data-source-line="13" id="ent0009"><rect fill="#F1F1F1" height="49.0679" rx="2.5" ry="2.5" style="stroke:#181818;stroke-width:0.5;" width="123.3277" x="468.38" y="663.072"/><rect fill="#F1F1F1" height="10" style="stroke:#181818;stroke-width:0.5;" width="15" x="571.7077" y="668.072"/><rect fill="#F1F1F1" height="2" style="stroke:#181818;stroke-width:0.5;" width="4" x="569.7077" y="670.072"/><rect fill="#F1F1F1" height="2" style="stroke:#181818;stroke-width:0.5;" width="4" x="569.7077" y="674.072"/><text fill="#000000" font-family="sans-serif" font-size="14" lengthAdjust="spacing" textLength="83.3277" x="483.38" y="698.0379">&#344;e&#353;&#237;c&#237; modul</text></g><!--entity Dek?dovac? modul--><g class="entity" data-qualified-name="Aplikace.Business logika.Dek.dovac. modul" data-source-line="14" id="ent0010"><rect fill="#F1F1F1" height="49.0679" rx="2.5" ry="2.5" style="stroke:#181818;stroke-width:0.5;" width="162.5135" x="976.22" y="616.072"/><rect fill="#F1F1F1" height="10" style="stroke:#181818;stroke-width:0.5;" width="15" x="1118.7335" y="621.072"/><rect fill="#F1F1F1" height="2" style="stroke:#181818;stroke-width:0.5;" width="4" x="1116.7335" y="623.072"/><rect fill="#F1F1F1" height="2" style="stroke:#181818;stroke-width:0.5;" width="4" x="1116.7335" y="627.072"/><text fill="#000000" font-family="sans-serif" font-size="14" lengthAdjust="spacing" textLength="122.5135" x="991.22" y="651.0379">Dek&#243;dovac&#237; modul</text></g><!--entity Naviga?n? li?ta--><g class="entity" data-qualified-name="Aplikace.U.ivatelsk. rozhran. .UI..Naviga.n. li.ta" data-source-line="20" id="ent0012"><rect fill="#F1F1F1" height="49.0679" rx="2.5" ry="2.5" style="stroke:#181818;stroke-width:0.5;" width="135.1436" x="61.7" y="299.072"/><rect fill="#F1F1F1" height="10" style="stroke:#181818;stroke-width:0.5;" width="15" x="176.8436" y="304.072"/><rect fill="#F1F1F1" height="2" style="stroke:#181818;stroke-width:0.5;" width="4" x="174.8436" y="306.072"/><rect fill="#F1F1F1" height="2" style="stroke:#181818;stroke-width:0.5;" width="4" x="174.8436" y="310.072"/><text fill="#000000" font-family="sans-serif" font-size="14" lengthAdjust="spacing" textLength="95.1436" x="76.7" y="334.0379">Naviga&#269;n&#237; li&#353;ta</text></g><!--entity Domovsk? str?nka--><g class="entity" data-qualified-name="Aplikace.U.ivatelsk. rozhran. .UI..Domovsk. str.nka" data-source-line="21" id="ent0013"><rect fill="#F1F1F1" height="49.0679" rx="2.5" ry="2.5" style="stroke:#181818;stroke-width:0.5;" width="162.4155" x="448.84" y="341.072"/><rect fill="#F1F1F1" height="10" style="stroke:#181818;stroke-width:0.5;" width="15" x="591.2555" y="346.072"/><rect fill="#F1F1F1" height="2" style="stroke:#181818;stroke-width:0.5;" width="4" x="589.2555" y="348.072"/><rect fill="#F1F1F1" height="2" style="stroke:#181818;stroke-width:0.5;" width="4" x="589.2555" y="352.072"/><text fill="#000000" font-family="sans-serif" font-size="14" lengthAdjust="spacing" textLength="122.4155" x="463.84" y="376.0379">Domovsk&#225; str&#225;nka</text></g><!--entity Str?nky redukc?--><g class="entity" data-qualified-name="Aplikace.U.ivatelsk. rozhran. .UI..Str.nky redukc." data-source-line="23" id="ent0014"><rect fill="#F1F1F1" height="49.0679" rx="2.5" ry="2.5" style="stroke:#181818;stroke-width:0.5;" width="142.0316" x="459.03" y="257.072"/><rect fill="#F1F1F1" height="10" style="stroke:#181818;stroke-width:0.5;" width="15" x="581.0616" y="262.072"/><rect fill="#F1F1F1" height="2" style="stroke:#181818;stroke-width:0.5;" width="4" x="579.0616" y="264.072"/><rect fill="#F1F1F1" height="2" style="stroke:#181818;stroke-width:0.5;" width="4" x="579.0616" y="268.072"/><text fill="#000000" font-family="sans-serif" font-size="14" lengthAdjust="spacing" textLength="102.0316" x="474.03" y="292.0379">Str&#225;nky redukc&#237;</text></g><!--entity Editory vstup?--><g class="entity" data-qualified-name="Aplikace.U.ivatelsk. rozhran. .UI..Editory vstup." data-source-line="24" id="ent0015"><rect fill="#F1F1F1" height="49.0679" rx="2.5" ry="2.5" style="stroke:#181818;stroke-width:0.5;" width="134.8776" x="990.04" y="267.072"/><rect fill="#F1F1F1" height="10" style="stroke:#181818;stroke-width:0.5;" width="15" x="1104.9176" y="272.072"/><rect fill="#F1F1F1" height="2" style="stroke:#181818;stroke-width:0.5;" width="4" x="1102.9176" y="274.072"/><rect fill="#F1F1F1" height="2" style="stroke:#181818;stroke-width:0.5;" width="4" x="1102.9176" y="278.072"/><text fill="#000000" font-family="sans-serif" font-size="14" lengthAdjust="spacing" textLength="94.8776" x="1005.04" y="302.0379">Editory vstup&#367;</text></g><!--entity Kontroln? panel--><g class="entity" data-qualified-name="Aplikace.U.ivatelsk. rozhran. .UI..Kontroln. panel" data-source-line="25" id="ent0016"><rect fill="#F1F1F1" height="49.0679" rx="2.5" ry="2.5" style="stroke:#181818;stroke-width:0.5;" width="141.2336" x="986.86" y="183.072"/><rect fill="#F1F1F1" height="10" style="stroke:#181818;stroke-width:0.5;" width="15" x="1108.0936" y="188.072"/><rect fill="#F1F1F1" height="2" style="stroke:#181818;stroke-width:0.5;" width="4" x="1106.0936" y="190.072"/><rect fill="#F1F1F1" height="2" style="stroke:#181818;stroke-width:0.5;" width="4" x="1106.0936" y="194.072"/><text fill="#000000" font-family="sans-serif" font-size="14" lengthAdjust="spacing" textLength="101.2336" x="1001.86" y="218.0379">Kontroln&#237; panel</text></g><!--entity Vizualizace instanc?--><g class="entity" data-qualified-name="Aplikace.U.ivatelsk. rozhran. .UI..Vizualizace instanc." data-source-line="26" id="ent0017"><rect fill="#F1F1F1" height="49.0679" rx="2.5" ry="2.5" style="stroke:#181818;stroke-width:0.5;" width="165.8735" x="974.54" y="99.072"/><rect fill="#F1F1F1" height="10" style="stroke:#181818;stroke-width:0.5;" width="15" x="1120.4135" y="104.072"/><rect fill="#F1F1F1" height="2" style="stroke:#181818;stroke-width:0.5;" width="4" x="1118.4135" y="106.072"/><rect fill="#F1F1F1" height="2" style="stroke:#181818;stroke-width:0.5;" width="4" x="1118.4135" y="110.072"/><text fill="#000000" font-family="sans-serif" font-size="14" lengthAdjust="spacing" textLength="125.8735" x="989.54" y="134.0379">Vizualizace instanc&#237;</text></g><!--entity Vizualizace ?e?en?--><g class="entity" data-qualified-name="Aplikace.U.ivatelsk. rozhran. .UI..Vizualizace .e.en." data-source-line="27" id="ent0018"><rect fill="#F1F1F1" height="49.0679" rx="2.5" ry="2.5" style="stroke:#181818;stroke-width:0.5;" width="155.5555" x="979.7" y="435.072"/><rect fill="#F1F1F1" height="10" style="stroke:#181818;stroke-width:0.5;" width="15" x="1115.2555" y="440.072"/><rect fill="#F1F1F1" height="2" style="stroke:#181818;stroke-width:0.5;" width="4" x="1113.2555" y="442.072"/><rect fill="#F1F1F1" height="2" style="stroke:#181818;stroke-width:0.5;" width="4" x="1113.2555" y="446.072"/><text fill="#000000" font-family="sans-serif" font-size="14" lengthAdjust="spacing" textLength="115.5555" x="994.7" y="470.0379">Vizualizace &#345;e&#353;en&#237;</text></g><!--entity Kroky redukce--><g class="entity" data-qualified-name="Aplikace.U.ivatelsk. rozhran. .UI..Kroky redukce" data-source-line="28" id="ent0019"><rect fill="#F1F1F1" height="49.0679" rx="2.5" ry="2.5" style="stroke:#181818;stroke-width:0.5;" width="134.2056" x="990.38" y="351.072"/><rect fill="#F1F1F1" height="10" style="stroke:#181818;stroke-width:0.5;" width="15" x="1104.5856" y="356.072"/><rect fill="#F1F1F1" height="2" style="stroke:#181818;stroke-width:0.5;" width="4" x="1102.5856" y="358.072"/><rect fill="#F1F1F1" height="2" style="stroke:#181818;stroke-width:0.5;" width="4" x="1102.5856" y="362.072"/><text fill="#000000" font-family="sans-serif" font-size="14" lengthAdjust="spacing" textLength="94.2056" x="1005.38" y="386.0379">Kroky redukce</text></g><!--link Naviga?n? li?ta to Domovsk? str?nka--><g class="link" data-entity-1="ent0012" data-entity-2="ent0013" data-link-type="dependency" data-source-line="35" id="lnk20"><path d="M197.02,330.632 C266.3,337.932 368.733,348.7135 442.693,356.5035" fill="none" id="Naviga&#269;n&#237; li&#353;ta-to-Domovsk&#225; str&#225;nka" style="stroke:#181818;stroke-width:1;"/><polygon fill="#181818" points="448.66,357.132,440.1285,352.2113,443.6875,356.6082,439.2905,360.1672,448.66,357.132" style="stroke:#181818;stroke-width:1;"/></g><!--link Naviga?n? li?ta to Str?nky redukc?--><g class="link" data-entity-1="ent0012" data-entity-2="ent0014" data-link-type="dependency" data-source-line="36" id="lnk21"><path d="M197.02,316.572 C269.52,308.932 378.883,297.4204 452.753,289.6404" fill="none" id="Naviga&#269;n&#237; li&#353;ta-to-Str&#225;nky redukc&#237;" style="stroke:#181818;stroke-width:1;"/><polygon fill="#181818" points="458.72,289.012,449.3505,285.9767,453.7475,289.5357,450.1885,293.9326,458.72,289.012" style="stroke:#181818;stroke-width:1;"/></g><!--link Str?nky redukc? to Editory vstup?--><g class="link" data-entity-1="ent0014" data-entity-2="ent0015" data-link-type="dependency" data-source-line="38" id="lnk22"><path d="M601.36,282.942 C703.15,284.882 884.2411,288.3282 983.9011,290.2182" fill="none" id="Str&#225;nky redukc&#237;-to-Editory vstup&#367;" style="stroke:#181818;stroke-width:1;"/><polygon fill="#181818" points="989.9,290.332,980.9775,286.1621,984.9009,290.2372,980.8258,294.1606,989.9,290.332" style="stroke:#181818;stroke-width:1;"/></g><!--link Str?nky redukc? to Kontroln? panel--><g class="link" data-entity-1="ent0014" data-entity-2="ent0016" data-link-type="dependency" data-source-line="39" id="lnk23"><path d="M601.36,271.702 C702.03,257.522 880.1987,232.429 980.6387,218.279" fill="none" id="Str&#225;nky redukc&#237;-to-Kontroln&#237; panel" style="stroke:#181818;stroke-width:1;"/><polygon fill="#181818" points="986.58,217.442,977.11,214.7366,981.6289,218.1395,978.226,222.6584,986.58,217.442" style="stroke:#181818;stroke-width:1;"/></g><!--link Str?nky redukc? to Vizualizace instanc?--><g class="link" data-entity-1="ent0014" data-entity-2="ent0017" data-link-type="dependency" data-source-line="40" id="lnk24"><path d="M588.39,256.652 C606.79,249.092 627.36,241.072 646.54,234.602 C758.5,196.822 885.0875,164.2498 968.4875,144.1198" fill="none" id="Str&#225;nky redukc&#237;-to-Vizualizace instanc&#237;" style="stroke:#181818;stroke-width:1;"/><polygon fill="#181818" points="974.32,142.712,964.6327,140.9353,969.4596,143.8851,966.5098,148.712,974.32,142.712" style="stroke:#181818;stroke-width:1;"/></g><!--link Str?nky redukc? to Vizualizace ?e?en?--><g class="link" data-entity-1="ent0014" data-entity-2="ent0018" data-link-type="dependency" data-source-line="41" id="lnk25"><path d="M591.22,306.632 C600.15,311.602 608.9,317.272 616.54,323.602 C633.65,337.782 627.94,351.452 646.54,363.602 C748.74,430.362 886.0651,450.4469 973.3651,456.6469" fill="none" id="Str&#225;nky redukc&#237;-to-Vizualizace &#345;e&#353;en&#237;" style="stroke:#181818;stroke-width:1;"/><polygon fill="#181818" points="979.35,457.072,970.656,452.4445,974.3626,456.7178,970.0892,460.4244,979.35,457.072" style="stroke:#181818;stroke-width:1;"/></g><!--link Str?nky redukc? to Kroky redukce--><g class="link" data-entity-1="ent0014" data-entity-2="ent0019" data-link-type="dependency" data-source-line="42" id="lnk26"><path d="M601.36,294.182 C703.15,312.392 884.3338,344.8053 983.9938,362.6353" fill="none" id="Str&#225;nky redukc&#237;-to-Kroky redukce" style="stroke:#181818;stroke-width:1;"/><polygon fill="#181818" points="989.9,363.692,981.7451,358.1695,984.9781,362.8114,980.3362,366.0445,989.9,363.692" style="stroke:#181818;stroke-width:1;"/></g><!--link Editory vstup? to Datov? struktury--><g class="link" data-entity-1="ent0015" data-entity-2="ent0004" data-link-type="dependency" data-source-line="45" id="lnk27"><path d="M989.81,314.892 C903.65,344.962 748.97,398.872 616.54,444.602 C446.89,503.192 403.5,515.042 234.54,575.602 C222.17,580.032 214.6329,582.7684 201.9829,587.4784" fill="none" id="Editory vstup&#367;-to-Datov&#233; struktury" style="stroke:#181818;stroke-width:1;"/><polygon fill="#181818" points="196.36,589.572,206.1901,590.1802,201.0457,587.8273,203.3986,582.683,196.36,589.572" style="stroke:#181818;stroke-width:1;"/><path d="M448.54,412.602 L448.54,439.602 L611.54,439.602 L611.54,422.602 L601.54,412.602 L448.54,412.602" fill="#FFFFFF" style="stroke:#181818;stroke-width:0.5;"/><path d="M601.54,412.602 L601.54,422.602 L611.54,422.602 L601.54,412.602" fill="#FFFFFF" style="stroke:#181818;stroke-width:0.5;"/><text fill="#000000" font-family="sans-serif" font-size="13" lengthAdjust="spacing" textLength="142.9871" x="454.54" y="431.499">zad&#225;n&#237; vstupn&#237; instance</text></g><!--link Datov? struktury to Reduk?n? modul--><g class="link" data-entity-1="ent0004" data-entity-2="ent0008" data-link-type="dependency" data-source-line="50" id="lnk28"><path d="M205.01,592.832 C214.87,590.672 224.9,588.832 234.54,587.602 C313.46,577.552 334.18,582.132 413.54,587.602 C427.48,588.562 436.3391,589.4056 450.5491,591.2356" fill="none" id="Datov&#233; struktury-to-Reduk&#269;n&#237; modul" style="stroke:#181818;stroke-width:1;"/><polygon fill="#181818" points="456.5,592.002,448.0846,586.8852,451.541,591.3633,447.0628,594.8197,456.5,592.002" style="stroke:#181818;stroke-width:1;"/></g><!--link Reduk?n? modul to Datov? struktury--><g class="link" data-entity-1="ent0008" data-entity-2="ent0004" data-link-type="dependency" data-source-line="52" id="lnk29"><path d="M479.75,628.562 C459.74,637.382 436.06,646.192 413.54,650.602 C335.47,665.882 313,663.762 234.54,650.602 C220.38,648.222 211.2586,646.0296 197.3886,641.4596" fill="none" id="Reduk&#269;n&#237; modul-to-Datov&#233; struktury" style="stroke:#181818;stroke-width:1;"/><polygon fill="#181818" points="191.69,639.582,198.9862,646.1975,196.4389,641.1467,201.4897,638.5993,191.69,639.582" style="stroke:#181818;stroke-width:1;"/><path d="M239.54,600.602 L239.54,645.602 L408.54,645.602 L408.54,610.602 L398.54,600.602 L239.54,600.602" fill="#FFFFFF" style="stroke:#181818;stroke-width:0.5;"/><path d="M398.54,600.602 L398.54,610.602 L408.54,610.602 L398.54,600.602" fill="#FFFFFF" style="stroke:#181818;stroke-width:0.5;"/><text fill="#000000" font-family="sans-serif" font-size="13" lengthAdjust="spacing" textLength="148.1741" x="245.54" y="619.499">redukce vstupn&#237; instanci</text><text fill="#000000" font-family="sans-serif" font-size="13" lengthAdjust="spacing" textLength="120.8871" x="245.54" y="637.205">na v&#253;stupn&#237; instanci</text></g><!--link Datov? struktury to ?e??c? modul--><g class="link" data-entity-1="ent0004" data-entity-2="ent0009" data-link-type="dependency" data-source-line="58" id="lnk30"><path d="M173.22,639.602 C196.07,652.422 221.98,666.082 234.54,669.602 C312.97,691.582 401.5831,693.3935 462.0231,691.4635" fill="none" id="Datov&#233; struktury-to-&#344;e&#353;&#237;c&#237; modul" style="stroke:#181818;stroke-width:1;"/><polygon fill="#181818" points="468.02,691.272,458.8969,687.5613,463.0225,691.4316,459.1522,695.5572,468.02,691.272" style="stroke:#181818;stroke-width:1;"/></g><!--link ?e??c? modul to Dek?dovac? modul--><g class="link" data-entity-1="ent0009" data-entity-2="ent0010" data-link-type="dependency" data-source-line="60" id="lnk31"><path d="M591.91,692.702 C673.09,698.112 820.93,703.102 944.54,680.602 C962.31,677.372 975.366,673.708 992.276,667.608" fill="none" id="&#344;e&#353;&#237;c&#237; modul-to-Dek&#243;dovac&#237; modul" style="stroke:#181818;stroke-width:1;"/><polygon fill="#181818" points="997.92,665.572,988.0967,664.8633,993.2167,667.2686,990.8113,672.3886,997.92,665.572" style="stroke:#181818;stroke-width:1;"/><path d="M651.54,630.602 L651.54,675.602 L939.54,675.602 L939.54,640.602 L929.54,630.602 L651.54,630.602" fill="#FFFFFF" style="stroke:#181818;stroke-width:0.5;"/><path d="M929.54,630.602 L929.54,640.602 L939.54,640.602 L929.54,630.602" fill="#FFFFFF" style="stroke:#181818;stroke-width:0.5;"/><text fill="#000000" font-family="sans-serif" font-size="13" lengthAdjust="spacing" textLength="264.0953" x="657.54" y="649.499">pokud &#345;e&#353;en&#237; pro v&#253;stupn&#237; instanci existuje,</text><text fill="#000000" font-family="sans-serif" font-size="13" lengthAdjust="spacing" textLength="236.4312" x="657.54" y="667.205">dek&#243;duje se na &#345;e&#353;en&#237; vstupn&#237; instance</text></g><!--link Reduk?n? modul to Kroky redukce--><g class="link" data-entity-1="ent0008" data-entity-2="ent0019" data-link-type="dependency" data-source-line="67" id="lnk32"><path d="M571.26,578.622 C592.81,566.402 620.27,552.622 646.54,544.602 C710.34,525.132 892.94,550.872 944.54,508.602 C977.49,481.612 946.86,449.962 974.54,417.602 C980.16,411.042 982.0359,408.6772 989.4159,403.8272" fill="none" id="Reduk&#269;n&#237; modul-to-Kroky redukce" style="stroke:#181818;stroke-width:1;"/><polygon fill="#181818" points="994.43,400.532,984.712,402.132,990.2515,403.278,989.1056,408.8175,994.43,400.532" style="stroke:#181818;stroke-width:1;"/><path d="M701.04,476.602 L701.04,503.602 L890.04,503.602 L890.04,486.602 L880.04,476.602 L701.04,476.602" fill="#FFFFFF" style="stroke:#181818;stroke-width:0.5;"/><path d="M880.04,476.602 L880.04,486.602 L890.04,486.602 L880.04,476.602" fill="#FFFFFF" style="stroke:#181818;stroke-width:0.5;"/><text fill="#000000" font-family="sans-serif" font-size="13" lengthAdjust="spacing" textLength="168.9481" x="707.04" y="495.499">zobrazen&#237; reduk&#269;n&#237;ch krok&#367;</text></g><!--link ?e??c? modul to Vizualizace ?e?en?--><g class="link" data-entity-1="ent0009" data-entity-2="ent0018" data-link-type="dependency" data-source-line="72" id="lnk33"><path d="M586.29,662.672 C596.57,657.422 607.05,651.632 616.54,645.602 C630.96,636.452 630.76,628.112 646.54,621.602 C769.7,570.852 826.6,651.522 944.54,589.602 C956.51,583.322 1004.0175,525.2838 1032.8475,489.3138" fill="none" id="&#344;e&#353;&#237;c&#237; modul-to-Vizualizace &#345;e&#353;en&#237;" style="stroke:#181818;stroke-width:1;"/><polygon fill="#181818" points="1036.6,484.632,1027.8501,489.153,1033.473,488.5335,1034.0925,494.1563,1036.6,484.632" style="stroke:#181818;stroke-width:1;"/><path d="M680.04,557.602 L680.04,584.602 L911.04,584.602 L911.04,567.602 L901.04,557.602 L680.04,557.602" fill="#FFFFFF" style="stroke:#181818;stroke-width:0.5;"/><path d="M901.04,557.602 L901.04,567.602 L911.04,567.602 L901.04,557.602" fill="#FFFFFF" style="stroke:#181818;stroke-width:0.5;"/><text fill="#000000" font-family="sans-serif" font-size="13" lengthAdjust="spacing" textLength="210.0282" x="686.04" y="576.499">zobrazen&#237; &#345;e&#353;en&#237; v&#253;stupn&#237; instance</text></g><!--link Dek?dovac? modul to Vizualizace ?e?en?--><g class="link" data-entity-1="ent0010" data-entity-2="ent0018" data-link-type="dependency" data-source-line="77" id="lnk34"><path d="M1057.48,615.812 C1057.48,581.252 1057.48,524.942 1057.48,490.382" fill="none" id="Dek&#243;dovac&#237; modul-to-Vizualizace &#345;e&#353;en&#237;" style="stroke:#181818;stroke-width:1;"/><polygon fill="#181818" points="1057.48,484.382,1053.48,493.382,1057.48,489.382,1061.48,493.382,1057.48,484.382" style="stroke:#181818;stroke-width:1;"/><path d="M923.98,536.602 L923.98,563.602 L1147.98,563.602 L1147.98,546.602 L1137.98,536.602 L923.98,536.602" fill="#FFFFFF" style="stroke:#181818;stroke-width:0.5;"/><path d="M1137.98,536.602 L1137.98,546.602 L1147.98,546.602 L1137.98,536.602" fill="#FFFFFF" style="stroke:#181818;stroke-width:0.5;"/><text fill="#000000" font-family="sans-serif" font-size="13" lengthAdjust="spacing" textLength="203.3982" x="929.98" y="555.499">zobrazen&#237; &#345;e&#353;en&#237; vstupn&#237; instance</text></g><?plantuml-src fLGzZzD04EttLun24P0INK57WSHn73f5EX1HQ4uKU_R6MNQpQwrtBHB4Jw27CYN5wOgheJ7-Num_OZjP-nG9ovRiUVFrtkpuR9m8hc9gw1fY6WWQiRdTI0Q61PQgIBBn6P5iQS5gC3nQMGXvWN6jI1kgj6Nd61uPxLJuMajjuCbbUH5IvuNHgrXoGGCsWg-406QCc5qnWr-0L-DsxXAkM9A0r17wZseSuEQ2Mfrclo2nnWdhpEPJZHJrCLyCUjddzGBU6hgSmFFfxFfo0lFvUx9F-O65Jlpzhh8xMElGoNt6c_m7otVPNU015qna3w5EwH7qZLJF8ymM-H-UKija8h0_exShGulAJnTNppeqhsdA8rer9Nc-ixGjhjSwnUXTmIxRAT50UuzvPT_W194PzjZ4lWcvrMO3QM9TdDytzfbMrcXPL8kfOYtJZtphgEHR71bmbU1vwARhelbF58kf3Zepkkc1TGKYU8zXEft2uWfKoRGuJ8M5z357u6K_xs5lNmCWfCzQUdkw37hwIWsw3cXtadz7pU5M3lMj9JrOdQ3Iz9XUBQY_IkKIuIGaLm97jQKXLaQgPM3nKlDWXAcmN3aKrSzJvVVtYlYsKrkfQNgTSCGKXJJxxG4djEXlEF5jTOizEt_K8wwv5YviXmUnqNsj0Vl2qVQPJQgT3SlS-0q9AzYq2HuJlfhtEsTZP-4MVp353netgXpvWD17P-PutlhMq6rPs3JnmGe4HkNtNK47H1eumiDbEamzcGuFcI___vSSBlWF?></g></svg>